<svg id="Layer_1" data-name="Layer 1" xmlns="http://www.w3.org/2000/svg" viewBox="0 0 196.07 135.18"><defs><style>.cls-1{fill:#969899;}.cls-2{fill:#dbdbdb;}.cls-3{fill:#2f0f33;}.cls-4{fill:#9092c5;}</style></defs><rect class="cls-1" x="243.11" y="508.9" width="7.43" height="62.6" transform="matrix(0.94, 0.34, -0.34, 0.94, 37.51, -489.77)"/><rect class="cls-2" x="248.34" y="510.67" width="8.07" height="62.86" transform="translate(38.5 -491.57) rotate(20.14)"/><polygon class="cls-3" points="103.83 75.57 116.32 80.15 118.31 74.74 131.38 79.53 133.78 74.01 145.96 78.48 148.9 70.48 162.53 75.48 165.2 68.2 177.9 72.86 179.96 67.25 193.78 72.32 196.07 67.47 182.54 62.51 186.04 54.75 173.14 50.02 175.28 44.03 161.84 39.1 163.99 33.22 151.34 28.58 153.14 21.22 140.29 16.51 143.04 9.6 116.85 0 90.55 71.72 103.5 76.47 103.83 75.57"/><rect class="cls-4" x="266.84" y="437.86" width="13.79" height="76.39" transform="translate(17.07 -502.96) rotate(20.14)"/><rect class="cls-1" x="272.65" y="508.9" width="7.43" height="62.6" transform="translate(558.26 514.41) rotate(159.86)"/><rect class="cls-2" x="266.77" y="510.67" width="8.07" height="62.86" transform="translate(548.13 520.01) rotate(159.86)"/><polygon class="cls-3" points="92.24 75.57 79.75 80.15 77.76 74.74 64.69 79.53 62.29 74.01 50.1 78.48 47.17 70.48 33.54 75.48 30.87 68.2 18.17 72.86 16.11 67.25 2.29 72.32 0 67.47 13.53 62.51 10.03 54.75 22.93 50.02 20.79 44.03 34.23 39.1 32.08 33.22 44.73 28.58 42.93 21.22 55.77 16.51 53.03 9.6 79.22 0 105.52 71.72 92.57 76.47 92.24 75.57"/><rect class="cls-4" x="242.56" y="437.86" width="13.79" height="76.39" transform="translate(483.99 399.3) rotate(159.86)"/></svg>