<svg id="Layer_1" data-name="Layer 1" xmlns="http://www.w3.org/2000/svg" viewBox="0 0 219.93 192.64"><defs><style>.cls-1{fill:#903096;}.cls-2{fill:#9092c5;}.cls-3{fill:#2f0f33;}.cls-4{fill:#ebf3fb;}.cls-5{fill:#969899;}.cls-6{fill:#bcbec0;}</style></defs><polygon class="cls-1" points="10.88 17.42 10.94 8.25 20.42 8.56 29.88 18.05 29.75 37.44 39.63 37.5 39.5 57.39 29.63 57.33 29.39 96.01 20.13 95.95 20.38 17.2 10.88 17.42"/><polygon class="cls-2" points="87.46 96.38 78.28 96.32 78.15 156.07 88.15 156.13 88.4 116.91 98.2 116.97 98.14 126.17 107.34 126.22 107.03 146.31 116.47 146.37 116.72 106.98 107.77 106.92 107.86 96.5 97.91 96.44 98.15 58.01 88.02 48 78.78 38.1 69.59 38.2 69.65 28.23 59.32 28.44 59.38 18.24 39.75 18.11 39.81 8.43 20.42 8.56 29.88 18.05 29.75 37.44 39.63 37.5 29.63 57.33 29.39 96.01 10.39 95.89 10.32 106.94 0.2 107.16 0.02 135.69 9.21 136.03 9.28 125.61 39.07 125.99 39.12 117.32 48.86 117.13 48.98 98 39.48 98.22 39.5 57.39 49.24 57.7 49.3 48.27 78.41 48.21 78.36 56.79 88.16 56.85 87.46 96.38"/><polygon class="cls-3" points="78.36 56.79 78.41 48.21 49.3 48.27 49.24 57.7 39.5 57.39 39.26 96.07 49 96.13 48.69 145.69 38.95 145.63 38.89 154.81 48.63 154.87 48.56 165.39 29.89 165.27 29.75 183.96 19.32 183.9 19.27 192.27 64.57 192.55 64.62 185.92 72.08 185.97 72.04 192.6 77.52 192.64 78.28 96.32 87.46 96.38 87.63 86.76 88.16 56.85 78.36 56.79"/><rect class="cls-4" x="233.45" y="181.52" width="9.19" height="9.19" transform="translate(-182.76 -125.16) rotate(0.36)"/><rect class="cls-4" x="252.75" y="181.95" width="9.19" height="9.19" transform="translate(-182.75 -125.28) rotate(0.36)"/><rect class="cls-3" x="193.6" y="249.63" width="19.61" height="30.03" transform="translate(-182.26 -124.94) rotate(0.36)"/><polygon class="cls-2" points="28.79 125.84 39.24 125.97 39.18 136.05 48.92 135.98 48.86 145.67 39.12 145.61 39.06 154.79 48.8 154.85 48.74 165.37 30.07 165.25 29.93 183.94 19.5 183.88 19.55 175.33 10.06 175.01 10.13 165.13 0.01 165.06 0.2 135.68 9.39 136.01 8.97 154.76 28.86 154.89 28.79 125.84"/><rect class="cls-3" x="223.14" y="239.98" width="9.81" height="9.81" transform="translate(-182.39 -125.09) rotate(0.36)"/><rect class="cls-2" x="223.08" y="249.78" width="9.81" height="9.81" transform="translate(-182.33 -125.09) rotate(0.36)"/><rect class="cls-2" x="220.83" y="219.74" width="12.26" height="4.9" transform="translate(-182.53 -125.09) rotate(0.36)"/><rect class="cls-1" x="283.11" y="250.16" width="11.03" height="19.61" transform="matrix(1, 0.01, -0.01, 1, -182.29, -125.47)"/><rect class="cls-2" x="261.36" y="302.12" width="10.42" height="10.42" transform="translate(-181.99 -125.34) rotate(0.36)"/><rect class="cls-5" x="293.78" y="204.74" width="7.89" height="66.52" transform="translate(-161.69 -149.09) rotate(5.08)"/><rect class="cls-6" x="299.67" y="205.02" width="8.58" height="66.8" transform="translate(-161.63 -149.64) rotate(5.08)"/><polygon class="cls-3" points="127.5 81.15 141.59 82.4 142.13 76.3 156.87 77.61 157.81 71.28 171.54 72.5 172.35 63.49 187.72 64.85 188.45 56.64 202.77 57.91 203.33 51.6 218.91 52.98 219.93 47.37 204.68 46.01 206.12 37.09 191.58 35.79 192.12 29.05 176.96 27.7 177.55 21.07 163.28 19.81 163.1 11.76 148.62 10.47 149.53 2.63 120 0 112.81 80.86 127.41 82.16 127.5 81.15"/><rect class="cls-2" x="300.31" y="124.15" width="14.66" height="81.18" transform="translate(-168.14 -150.26) rotate(5.08)"/><rect class="cls-2" x="220.64" y="219.74" width="12.26" height="64.35" transform="translate(-182.34 -125.09) rotate(0.36)"/><rect class="cls-2" x="184" y="219.55" width="23.29" height="22.68" transform="translate(-182.48 -124.89) rotate(0.36)"/><rect class="cls-2" x="261.6" y="220" width="10.42" height="96.22" transform="translate(-182.24 -125.34) rotate(0.36)"/><rect class="cls-2" x="189.94" y="242.28" width="29.42" height="37.39" transform="translate(-182.29 -124.95) rotate(0.36)"/></svg>